<?xml version="1.0" encoding="UTF-8"?>
<svg version="1.1" viewBox="0 0 325.04 132.28" xml:space="preserve"
     xmlns="http://www.w3.org/2000/svg">
  <g transform="matrix(1.3333 0 0 -1.3333 0 132.28)"><g transform="scale(.1)"><path d="m2437.8 0h-2437.8v992.12h2437.8v-992.12" fill="#74973f"/><path
    d="m486.95 492.91c5.383 2.031 9.973 5.527 13.75 10.496 3.781 4.973 5.676 11.516 5.676 19.641 0 12.312-3.926 20.508-11.77 24.57-7.839 4.063-16.16 6.094-24.988 6.094-3.644 0-6.367-0.391-8.183-1.164-1.829-0.77-3.118-2.274-3.887-4.512-0.774-2.234-1.153-5.742-1.153-10.496v-45.363c3.36-1.543 8.321-2.313 14.903-2.313 5.047 0 10.254 1.016 15.652 3.047zm-69.199-63.203c-0.703 0.906-1.055 1.992-1.055 3.25 0.149 2.102 0.598 3.359 1.367 3.781 0.774 0.418 2.141 0.625 4.102 0.625 4.055 0 7.062 0.742 9.023 2.207 1.965 1.473 3.184 3.289 3.684 5.457 0.488 2.168 0.801 5.012 0.938 8.508v83.367c-0.137 3.496-0.45 6.34-0.938 8.508-0.5 2.168-1.719 3.992-3.684 5.457-1.961 1.477-4.968 2.207-9.023 2.207h-1.27c-1.394 0-2.41 0.246-3.035 0.735-0.636 0.488-1.015 1.718-1.164 3.679 0 1.262 0.352 2.344 1.055 3.254 0.703 0.906 1.613 1.367 2.726 1.367 9.102-0.422 17.5-0.636 25.204-0.636h31.504c12.179 0 23.964-2.52 35.382-7.559 11.407-5.039 17.118-15.117 17.118-30.234 0-8.407-2.52-15.899-7.567-22.469-5.039-6.582-11.582-11.699-19.629-15.332-8.058-3.645-16.418-5.461-25.097-5.461-7.981 0-14.981 1.113-20.997 3.359v-30.242c0.137-3.496 0.45-6.34 0.938-8.508 0.496-2.168 1.719-3.984 3.68-5.457 1.953-1.465 4.961-2.207 9.023-2.207h1.262c1.406 0 2.422-0.246 3.047-0.734 0.632-0.488 1.015-1.719 1.16-3.672 0-1.258-0.32-2.344-0.945-3.25-0.637-0.918-1.583-1.367-2.844-1.367-8.953 0.418-17.703 0.625-26.25 0.625-7.559 0-15.887-0.207-24.989-0.625-1.113 0-2.023 0.449-2.726 1.367"
    fill="#fff"/><path
    d="m606.02 429.71c-0.625 0.906-0.946 1.992-0.946 3.25 0.145 2.102 0.594 3.359 1.368 3.781 0.769 0.418 2.07 0.625 3.886 0.625 4.063 0 7.071 0.742 9.031 2.207 1.954 1.473 3.215 3.262 3.782 5.36 0.554 2.101 0.906 4.961 1.043 8.605v83.367c-0.137 3.645-0.489 6.516-1.043 8.614-0.567 2.101-1.828 3.886-3.782 5.351-1.96 1.477-4.968 2.207-9.031 2.207h-1.261c-1.258 0-2.208 0.246-2.833 0.735-0.632 0.488-1.015 1.718-1.16 3.679 0 1.262 0.321 2.344 0.946 3.254 0.636 0.906 1.574 1.367 2.832 1.367 9.101-0.422 17.433-0.636 24.992-0.636 8.406 0 17.148 0.214 26.25 0.636 1.258 0 2.207-0.461 2.84-1.367 0.625-0.91 0.949-1.992 0.949-3.254-0.149-2.097-0.606-3.359-1.367-3.777-0.774-0.422-2.141-0.637-4.102-0.637-4.062 0-7.07-0.73-9.023-2.207-1.965-1.465-3.184-3.289-3.684-5.457-0.488-2.168-0.801-5.012-0.937-8.508v-83.367c0.136-3.496 0.449-6.34 0.937-8.508 0.5-2.168 1.719-3.984 3.684-5.457 1.953-1.465 4.961-2.207 9.023-2.207h1.258c1.406 0 2.422-0.246 3.047-0.734 0.637-0.488 1.015-1.719 1.164-3.672 0-1.258-0.324-2.344-0.949-3.25-0.633-0.918-1.582-1.367-2.84-1.367-8.957 0.418-17.637 0.625-26.035 0.625-7.707 0-16.106-0.207-25.207-0.625-1.258 0-2.196 0.449-2.832 1.367"
    fill="#fff"/><path
    d="m832.82 442.51c6.367 5.676 11.133 13.301 14.278 22.89 3.152 9.59 4.726 20.196 4.726 31.817 0 10.781-1.613 20.683-4.836 29.719-3.222 9.031-8.047 16.238-14.48 21.628-6.446 5.383-14.289 8.086-23.528 8.086-14.004 0-24.531-5.918-31.601-17.742-7.07-11.836-10.606-26.777-10.606-44.844 0-10.918 1.575-20.929 4.727-30.031 3.144-9.101 7.871-16.375 14.172-21.836 6.297-5.457 14.07-8.191 23.308-8.191 9.524 0 17.461 2.84 23.84 8.504zm-58.801-8.184c-10.156 6.367-17.988 14.805-23.523 25.305-5.527 10.496-8.293 21.765-8.293 33.808 0 14.696 3.32 27.508 9.973 38.426 6.648 10.918 15.156 19.289 25.515 25.098 10.364 5.812 20.86 8.711 31.504 8.711 13.438 0 25.305-3.184 35.598-9.551 10.281-6.375 18.191-14.773 23.73-25.203 5.528-10.43 8.289-21.66 8.289-33.703 0-14.696-3.359-27.547-10.078-38.535-6.718-10.996-15.332-19.395-25.828-25.196-10.5-5.808-21.074-8.718-31.711-8.718-13.301 0-25.027 3.183-35.176 9.558"
    fill="#fff"/><path
    d="m957.36 429.71c-0.636 0.906-0.949 1.992-0.949 3.25 0.137 2.102 0.559 3.359 1.262 3.781 0.703 0.418 2.031 0.625 3.992 0.625 4.055 0 7.031 0.742 8.918 2.207 1.895 1.473 3.047 3.223 3.465 5.254 0.422 2.02 0.703 4.93 0.84 8.711l0.422 83.367c0 4.199-0.45 7.383-1.36 9.563-0.918 2.168-2.351 3.738-4.304 4.726-1.965 0.977-4.766 1.817-8.399 2.52-2.383 0.418-3.859 0.84-4.414 1.258-0.566 0.422-0.84 1.601-0.84 3.566 0 1.68 0.45 2.801 1.367 3.359 0.907 0.555 2.344 0.84 4.305 0.84 8.672 0 15.539-0.597 20.578-1.777 5.039-1.191 9.481-3.332 13.328-6.406 3.86-3.086 8.084-7.774 12.704-14.075l57.55-75.605h0.63l-0.42 72.031c-0.14 3.782-0.42 6.692-0.84 8.723-0.42 2.019-1.58 3.777-3.47 5.242-1.89 1.477-4.86 2.207-8.93 2.207h-1.26c-1.39 0-2.41 0.246-3.04 0.735-0.63 0.488-1.02 1.718-1.16 3.679 0 1.262 0.36 2.344 1.06 3.254 0.69 0.906 1.6 1.367 2.72 1.367 8.97-0.422 15.69-0.636 20.17-0.636 2.66 0 7.76 0.136 15.32 0.421l4.42 0.215c1.26 0 2.2-0.461 2.83-1.367 0.63-0.91 0.95-1.992 0.95-3.254-0.14-2.097-0.56-3.359-1.26-3.777-0.71-0.422-2.04-0.637-4-0.637-4.06 0-7.03-0.73-8.91-2.207-1.9-1.465-3.05-3.223-3.47-5.242-0.42-2.031-0.7-4.941-0.84-8.723l-0.42-105.84c-0.15-1.816-1.9-2.722-5.25-2.722-2.66 0-4.69 0.906-6.1 2.722l-79.167 105.84h-0.625l0.418-83.367c0.137-3.781 0.422-6.691 0.84-8.711 0.422-2.031 1.574-3.781 3.468-5.254 1.883-1.465 4.864-2.207 8.926-2.207h1.258c1.402 0 2.412-0.246 3.052-0.734 0.62-0.488 1-1.719 1.15-3.672 0-1.258-0.31-2.344-0.95-3.25-0.62-0.918-1.57-1.367-2.83-1.367-8.965 0.418-15.754 0.625-20.371 0.625-2.805 0-7.707-0.137-14.699-0.422l-4.832-0.203c-1.262 0-2.208 0.449-2.833 1.367"
    fill="#fff"/><path
    d="m1167.7 388.64c-1.97 0-3.29 1.191-4 3.574-0.13 0.422-0.2 1.054-0.2 1.894 0 1.68 0.76 2.805 2.3 3.36 7 2.941 12.19 7.14 15.55 12.597 3.36 5.461 5.53 12.219 6.5 20.266 0.98 8.047 1.48 18.934 1.48 32.656v73.914c-0.15 3.496-0.46 6.34-0.95 8.508s-1.72 3.992-3.67 5.457c-1.96 1.477-4.97 2.207-9.03 2.207h-1.26c-1.4 0-2.42 0.246-3.05 0.735-0.63 0.488-1.02 1.718-1.15 3.679 0 1.262 0.35 2.344 1.04 3.254 0.7 0.906 1.61 1.367 2.74 1.367 8.95-0.422 17.28-0.636 24.99-0.636 8.53 0 17.28 0.214 26.25 0.636 1.26 0 2.2-0.461 2.83-1.367 0.63-0.91 0.95-1.992 0.95-3.254-0.14-2.097-0.6-3.359-1.37-3.777-0.77-0.422-2.13-0.637-4.09-0.637-4.07 0-7.07-0.73-9.04-2.207-1.96-1.465-3.18-3.289-3.67-5.457s-0.81-5.012-0.95-8.508v-81.054c0-18.067-3.18-32.872-9.55-44.414-6.37-11.551-16.98-19.149-31.81-22.793h-0.84"
    fill="#fff"/><path
    d="m1363.5 582.06c-2.59 2.519-3.88 5.46-3.88 8.82 0 3.633 1.26 6.648 3.78 9.031 2.52 2.375 5.66 3.566 9.44 3.566 3.65 0 6.65-1.191 9.04-3.566 2.38-2.383 3.57-5.398 3.57-9.031 0-3.36-1.23-6.301-3.68-8.82-2.45-2.52-5.5-3.778-9.13-3.778-3.51 0-6.55 1.258-9.14 3.778zm-32.23-102.06h44.09l-21.21 53.965h-0.62zm-8.09 102.06c-2.59 2.519-3.88 5.46-3.88 8.82 0 3.633 1.26 6.648 3.78 9.031 2.52 2.375 5.66 3.566 9.45 3.566 3.63 0 6.64-1.191 9.02-3.566 2.39-2.383 3.58-5.398 3.58-9.031 0-3.36-1.23-6.301-3.68-8.82-2.45-2.52-5.49-3.778-9.13-3.778-3.5 0-6.55 1.258-9.14 3.778zm-34.65-152.35c-0.63 0.906-0.94 1.992-0.94 3.25 0.14 2.102 0.56 3.359 1.26 3.781 0.7 0.418 1.53 0.625 2.52 0.625h1.88c4.2 0 7.29 1.082 9.24 3.262 1.97 2.168 3.54 4.617 4.73 7.344 1.19 2.734 2 4.59 2.42 5.566l36.75 86.941c0.84 2.102 1.26 3.782 1.26 5.04 0 2.519-0.99 4.335-2.94 5.46-1.96 1.122-4.7 2.032-8.2 2.735-2.38 0.418-3.84 0.84-4.4 1.258-0.57 0.422-0.84 1.601-0.84 3.566 0 1.68 0.45 2.801 1.36 3.359 0.91 0.555 2.34 0.84 4.3 0.84 7.01 0 12.57-0.519 16.7-1.574 4.12-1.055 7.74-3.152 10.81-6.297 3.08-3.156 5.95-7.949 8.62-14.387l35.28-86.941c2.1-5.324 4.12-9.309 6.08-11.973 1.97-2.656 4.91-4.054 8.82-4.199h1.26c1.4 0 2.39-0.246 2.94-0.734 0.56-0.488 0.91-1.719 1.06-3.672 0-1.258-0.32-2.344-0.95-3.25-0.63-0.918-1.57-1.367-2.83-1.367-8.97 0.418-16.66 0.625-23.11 0.625-8.4 0-17.08-0.207-26.03-0.625-1.26 0-2.21 0.449-2.83 1.367-0.64 0.906-0.95 1.992-0.95 3.25 0.13 1.953 0.49 3.184 1.04 3.672 0.56 0.488 1.55 0.734 2.94 0.734 4.77 0 8.13 0.457 10.09 1.367 1.95 0.907 2.94 2.559 2.94 4.942 0 1.816-0.84 5.105-2.52 9.863l-7.15 17.43h-51.86c-3.51-8.68-5.5-13.719-5.99-15.117-0.49-1.407-0.73-2.176-0.73-2.313-1.68-5.324-2.52-8.75-2.52-10.285 0-2.383 1.04-3.965 3.14-4.727 2.1-0.769 6.1-1.16 11.98-1.16h1.25c1.4 0 2.39-0.246 2.94-0.734 0.56-0.488 0.91-1.719 1.06-3.672 0-1.258-0.32-2.344-0.95-3.25-0.63-0.918-1.57-1.367-2.83-1.367-8.97 0.418-16.59 0.625-22.89 0.625-4.48 0-11.27-0.207-20.37-0.625-1.26 0-2.21 0.449-2.84 1.367"
    fill="#fff"/><path
    d="m1549 495.96c20.86 0 31.29 9.793 31.29 29.402 0 7.981-2.72 14.7-8.19 20.157-5.46 5.46-14.41 8.195-26.88 8.195-4.06 0-7.13-0.5-9.23-1.477-2.1-0.976-3.54-2.656-4.31-5.039s-1.15-6.023-1.15-10.918v-40.32zm-57.22-66.25c-0.63 0.906-0.95 1.992-0.95 3.25 0.15 2.102 0.57 3.359 1.26 3.781 0.7 0.418 2.03 0.625 3.99 0.625 4.07 0 7.07 0.742 9.04 2.207 1.95 1.473 3.18 3.289 3.67 5.457s0.8 5.012 0.95 8.508v83.164c-0.15 3.633-0.46 6.504-0.95 8.602-0.49 2.109-1.72 3.925-3.67 5.468-1.97 1.536-4.97 2.305-9.04 2.305h-1.26c-1.39 0-2.38 0.246-2.94 0.735-0.56 0.488-0.9 1.718-1.05 3.679 0 1.262 0.32 2.344 0.95 3.254 0.63 0.906 1.57 1.367 2.83 1.367 9.1-0.422 17.43-0.636 24.99-0.636h36.12c10.78-0.137 19.78-1.856 26.99-5.145 7.21-3.293 12.5-7.492 15.85-12.598 3.36-5.109 5.04-10.605 5.04-16.484 0-7.695-3.04-14.777-9.13-21.211-6.09-6.437-14.38-11.055-24.89-13.859l3.57-5.672c5.88-9.524 11.21-17.676 15.96-24.465 4.76-6.785 9.94-13.125 15.55-19.004 3.91-3.223 8.11-5.105 12.6-5.672 0.27 0 0.9-0.031 1.88-0.097 0.98-0.079 1.79-0.461 2.42-1.165 0.63-0.703 0.94-1.746 0.94-3.144 0-1.258-0.31-2.344-0.94-3.25-0.63-0.918-1.58-1.367-2.84-1.367l-5.46 0.203c-6.16 0.285-10.63 0.422-13.44 0.422-5.6 1.121-10.39 3.113-14.38 5.984s-7.95 6.965-11.87 12.285c-4.06 5.325-9.73 13.996-17.01 26.047l-3.78 6.082c-2.1 3.223-4.13 5.43-6.09 6.621-1.95 1.184-5.32 1.778-10.08 1.778h-6.08v-34.227c0.13-3.496 0.45-6.34 0.94-8.508s1.71-3.984 3.68-5.457c1.95-1.465 4.96-2.207 9.02-2.207h1.26c1.26 0 2.21-0.246 2.84-0.734s1.02-1.719 1.15-3.672c0-1.258-0.31-2.344-0.94-3.25-0.63-0.918-1.58-1.367-2.84-1.367-8.96 0.418-17.71 0.625-26.25 0.625-7.42 0-15.68-0.207-24.78-0.625-1.26 0-2.2 0.449-2.83 1.367"
    fill="#fff"/><path
    d="m1695.7 429.71c-0.63 0.906-0.94 1.992-0.94 3.25 0.13 2.102 0.55 3.359 1.26 3.781 0.7 0.418 2.03 0.625 3.99 0.625 4.05 0 7.06 0.742 9.02 2.207 1.97 1.473 3.19 3.289 3.69 5.457 0.48 2.168 0.8 5.012 0.93 8.508v83.367c-0.13 3.496-0.45 6.34-0.93 8.508-0.5 2.168-1.72 3.992-3.69 5.457-1.96 1.477-4.97 2.207-9.02 2.207h-1.27c-1.4 0-2.37 0.246-2.94 0.735-0.56 0.488-0.91 1.718-1.04 3.679 0 1.262 0.31 2.344 0.94 3.254 0.63 0.906 1.51 1.367 2.62 1.367 9.25-0.422 17.57-0.636 24.99-0.636h65.94c3.64 0 5.47-1.68 5.47-5.039l0.62-29.395c0-1.258-0.62-2.285-1.88-3.047-1.26-0.769-2.52-1.152-3.79-1.152-1.68 0-3.15 0.312-4.41 0.937-1.26 0.637-1.96 1.582-2.1 2.844-1.12 6.855-2.34 12.07-3.67 15.645-1.34 3.562-3.29 6.218-5.88 7.976-2.59 1.75-6.27 2.695-11.02 2.832h-28.15v-53.34h38.01c0.99-0.136 1.75-0.664 2.32-1.57 0.55-0.918 0.84-1.992 0.84-3.254 0-1.121-0.29-2.109-0.84-2.949-0.57-0.84-1.33-1.258-2.32-1.258h-38.01v-39.687c0.29-2.942 0.64-5.286 1.06-7.032 0.42-1.758 1.68-3.332 3.78-4.726 2.1-1.407 5.38-2.032 9.86-1.895h19.33c4.89 0.145 8.6 0.946 11.13 2.422 2.52 1.465 4.51 3.738 5.98 6.824 1.47 3.078 3.25 8.117 5.36 15.117 0.97 2.52 3.36 3.497 7.14 2.942 1.39-0.285 2.61-0.84 3.67-1.68 1.04-0.84 1.5-1.894 1.37-3.156l-4.2-26.453c-0.42-1.828-1.06-3.02-1.9-3.574-0.84-0.559-2.23-0.84-4.2-0.84h-69.29c-7.56 0-15.96-0.207-25.21-0.625-1.11 0-1.99 0.449-2.62 1.367"
    fill="#fff"/><path
    d="m1883.6 429.71c-0.63 0.906-0.94 1.992-0.94 3.25 0.13 2.102 0.55 3.359 1.26 3.781 0.7 0.418 2.03 0.625 3.99 0.625 4.05 0 7.03 0.742 8.93 2.207 1.88 1.473 3.04 3.223 3.46 5.254 0.42 2.02 0.7 4.93 0.84 8.711l0.42 83.367c0 4.199-0.46 7.383-1.37 9.563-0.91 2.168-2.34 3.738-4.3 4.726-1.96 0.977-4.77 1.817-8.4 2.52-2.38 0.418-3.86 0.84-4.41 1.258-0.56 0.422-0.84 1.601-0.84 3.566 0 1.68 0.45 2.801 1.36 3.359 0.91 0.555 2.35 0.84 4.31 0.84 8.67 0 15.54-0.597 20.58-1.777 5.03-1.191 9.48-3.332 13.34-6.406 3.84-3.086 8.08-7.774 12.7-14.075l57.54-75.605h0.62l-0.42 72.031c-0.13 3.782-0.42 6.692-0.83 8.723-0.42 2.019-1.58 3.777-3.47 5.242-1.89 1.477-4.87 2.207-8.92 2.207h-1.27c-1.39 0-2.41 0.246-3.03 0.735-0.64 0.488-1.02 1.718-1.17 3.679 0 1.262 0.36 2.344 1.06 3.254 0.69 0.906 1.61 1.367 2.72 1.367 8.97-0.422 15.69-0.636 20.17-0.636 2.66 0 7.77 0.136 15.33 0.421l4.41 0.215c1.25 0 2.2-0.461 2.84-1.367 0.62-0.91 0.93-1.992 0.93-3.254-0.13-2.097-0.55-3.359-1.26-3.777-0.7-0.422-2.03-0.637-3.98-0.637-4.06 0-7.04-0.73-8.93-2.207-1.89-1.465-3.04-3.223-3.46-5.242-0.42-2.031-0.71-4.941-0.84-8.723l-0.42-105.84c-0.14-1.816-1.9-2.722-5.26-2.722-2.65 0-4.68 0.906-6.08 2.722l-79.17 105.84h-0.63l0.42-83.367c0.13-3.781 0.42-6.691 0.84-8.711 0.42-2.031 1.58-3.781 3.46-5.254 1.9-1.465 4.87-2.207 8.93-2.207h1.26c1.39 0 2.41-0.246 3.04-0.734s1.02-1.719 1.16-3.672c0-1.258-0.32-2.344-0.95-3.25-0.63-0.918-1.57-1.367-2.83-1.367-8.97 0.418-15.75 0.625-20.37 0.625-2.81 0-7.7-0.137-14.7-0.422l-4.83-0.203c-1.26 0-2.21 0.449-2.84 1.367"
    fill="#fff"/></g></g></svg>
