<?xml version="1.0" encoding="UTF-8"?>
<svg version="1.1" viewBox="0 0 473.33 474.04" xml:space="preserve"
     xmlns="http://www.w3.org/2000/svg">
  <g transform="matrix(1.3333 0 0 -1.3333 0 474.04)"><g transform="scale(.1)" fill-rule="evenodd"><path d="m3372.1 2088.5-68.56-13.33 9.31-47.9c3.63-18.69 6.41-30.42 8.46-35.23 2.87-7.44 7.56-13.04 13.87-16.83 6.37-3.78 14.14-4.81 23.22-3.05 7.7 1.5 13.84 4.68 18.49 9.43 4.65 4.8 7.54 10.94 8.63 18.47 1.07 7.52-0.72 23.1-5.29 46.63l-8.13 41.81zm102.01 19.83-59.31-11.53 6.6-33.92c3.92-20.19 6.66-32.67 8.21-37.46 2.73-8.64 7.14-15.03 13.19-19.12 6.07-4.09 13.24-5.3 21.55-3.69 7.94 1.55 13.97 4.95 18.08 10.28 4.1 5.38 5.82 12.47 5.17 21.26-0.4 5.26-2.97 20.06-7.71 44.43l-5.78 29.75zm32.63 60.13 19.92-102.54c3.95-20.3 6.06-35.64 6.27-45.94 0.27-10.31-1.52-19.89-5.36-28.82-3.85-8.93-9.69-16.82-17.63-23.81-7.87-6.99-17.4-11.57-28.45-13.72-12-2.33-23.68-1.25-34.97 3.25-11.3 4.56-20.52 11.87-27.69 21.95-1.51-16.47-6.93-30.05-16.23-40.53-9.36-10.56-21.44-17.25-36.25-20.13-11.64-2.26-23.52-1.77-35.62 1.51-12.05 3.3-22.32 8.99-30.72 17.09-8.39 8.09-14.71 18.89-18.94 32.39-2.56 8.42-7.21 29.15-13.87 62.13l-16.98 87.31 256.52 49.86zm-207.27 182.83-66.04-22.74 15.89-46.13c6.2-18.01 10.57-29.24 13.28-33.71 3.87-6.97 9.29-11.86 16.07-14.74 6.84-2.86 14.67-2.8 23.41 0.21 7.43 2.56 13.07 6.56 17.01 11.91 3.93 5.4 5.94 11.89 5.97 19.49 0.02 7.6-3.92 22.78-11.72 45.45l-13.87 40.26zm98.25 33.83-57.12-19.66 11.26-32.68c6.68-19.45 11.13-31.42 13.33-35.94 3.91-8.18 9.17-13.9 15.74-17.11 6.57-3.2 13.84-3.4 21.83-0.65 7.66 2.63 13.16 6.85 16.49 12.69 3.31 5.9 4.02 13.16 2.15 21.78-1.13 5.15-5.74 19.46-13.81 42.93l-9.87 28.64zm23.94 64.1 34-98.77c6.74-19.56 10.97-34.45 12.61-44.63 1.7-10.16 1.25-19.9-1.31-29.28-2.57-9.37-7.24-18-14.14-26.04-6.82-8-15.61-13.87-26.26-17.54-11.56-3.98-23.27-4.53-35.08-1.65-11.82 2.95-21.98 8.9-30.47 17.88 0.8-16.51-2.68-30.71-10.43-42.39-7.8-11.76-18.83-20.06-33.1-24.97-11.22-3.87-23.05-5.04-35.49-3.47-12.38 1.59-23.36 5.8-32.79 12.65-9.44 6.85-17.2 16.66-23.26 29.43-3.72 7.99-11.21 27.87-22.4 59.6l-28.95 84.11 247.07 85.07zm-132.13 262.38 24.77-46.58-124.95-66.43c-19.83-10.54-32.41-17.99-37.66-22.23-8.4-7.01-13.43-15.82-15.16-26.32-1.75-10.57 0.86-22.35 7.78-35.35 7.03-13.21 15.03-21.77 24.02-25.6 8.94-3.87 17.74-4.35 26.3-1.53 8.64 2.81 22.04 9.11 40.3 18.82l127.64 67.86 24.76-46.57-121.19-64.44c-27.72-14.74-47.93-23.9-60.71-27.46-12.79-3.56-24.86-4.05-36.36-1.48-11.43 2.59-22.55 8.33-33.22 17.13-10.7 8.85-20.9 22.45-30.61 40.71-11.71 22.03-18.06 40.08-19.02 54.17-0.95 14.11 0.89 26.6 5.49 37.52 4.59 10.92 10.82 19.8 18.62 26.64 11.59 10.09 30.29 21.96 56.13 35.7l123.07 65.44zm-358.92 46.65 201.41 163.11 33.19-41-167.18-135.38 82.55-101.95-34.23-27.72-115.74 142.94zm-182.79 182.03 178.21 191.11 38.58-35.98-79.12-84.85 157.08 12.16 51.88-48.38-141.36-7.35-32.93-187.42-49.93 46.56 31.15 138.67-61.13-2.74-53.85-57.75-38.58 35.97zm-123.67 90.09 124.5 177.82-63.48 44.46 25.37 36.23 170.09-119.1-25.37-36.23-63.35 44.35-124.51-177.82-43.25 30.29zm-155.86 264.06 34.75-17.7c22.56-11.5 37.12-17.75 43.72-18.73 6.55-0.95 12.62 0.12 18.2 3.15 5.52 3.06 10.1 8.04 13.66 15.03 4.01 7.86 5.1 15.23 3.38 22.17-1.71 6.96-6.07 13-13.06 18.2-3.54 2.41-14.84 8.52-33.92 18.24l-36.65 18.67-30.08-59.03zm-115.53-110.41 118.64 232.83 98.98-50.43c24.88-12.69 41.87-24 51.01-33.92 9.15-9.91 14.42-21.96 15.75-36.09 1.31-14.18-1.54-28.09-8.56-41.86-8.89-17.46-21.42-29.31-37.47-35.47-16.01-6.12-35.09-5.48-57.01 2.01 7.15-11.16 12.24-21.94 15.24-32.41 2.99-10.47 5.47-27.58 7.47-51.4l5.31-59.94-56.21 28.65-8.17 68.01c-2.86 24.26-5.3 39.84-7.34 46.82s-5.13 12.59-9.2 16.91c-4.11 4.28-11.52 9.16-22.37 14.68l-9.48 4.83-49.53-97.19-47.06 23.97zm-189.6 193.32c-7.65-28.57-6.82-52.03 2.39-70.31 9.27-18.3 24.05-30.12 44.39-35.57 20.27-5.44 38.91-2.62 55.9 8.57 16.9 11.15 29.31 31.33 37.15 60.59 7.74 28.91 7.18 52.18-1.63 69.85-8.89 17.62-23.85 29.25-44.83 34.87-21.04 5.64-39.9 2.95-56.63-8-16.67-10.96-28.94-30.92-36.74-60zm-52.94 12.35c6.91 25.74 16.5 46.28 28.88 61.68 9.19 11.26 20.11 20.75 32.78 28.31 12.66 7.51 25.56 12.17 38.7 13.95 17.53 2.47 36.52 0.92 57.09-4.6 37.2-9.97 63.85-29.45 80-58.53 16.15-29.02 18.72-64.1 7.71-105.18-10.93-40.79-30.57-69.66-58.9-86.76-28.31-17.04-61.01-20.62-98.03-10.7-37.56 10.06-64.34 29.52-80.37 58.32-16.02 28.85-18.61 63.37-7.86 103.51zm-177.85 114.46-9.03-73.55 28.62-3.52c20.66-2.54 34.65-2.9 41.93-1.04 7.27 1.87 13.23 5.42 17.93 10.73 4.63 5.32 7.45 11.78 8.38 19.45 1.17 9.42-0.66 17.55-5.45 24.39-4.75 6.77-11.34 11.51-19.61 14.05-6.14 1.98-18.63 4.07-37.46 6.38l-25.31 3.11zm-78.82-209.04 31.85 259.37 84-10.32c31.83-3.91 52.44-7.78 61.78-11.57 14.38-5.68 25.84-15.68 34.27-29.95 8.42-14.27 11.37-31.73 8.84-52.33-1.97-15.94-6.51-28.99-13.64-39.08-7.13-10.16-15.47-17.78-25.18-22.91-9.63-5.07-19.19-8.06-28.61-8.93-12.81-0.94-31.08 0.02-54.82 2.93l-34.11 4.19-12.01-97.82-52.37 6.42zm-248.99 77.51 51.25 5.95c3.35-17.23 9.83-29.77 19.47-37.7 9.56-7.87 22.35-11.72 38.41-11.44 16.97 0.3 29.74 4.11 38.19 11.5 8.52 7.33 12.69 15.8 12.52 25.41-0.1 6.21-2.02 11.41-5.75 15.66-3.67 4.32-10.06 7.98-19.17 10.98-6.19 2.09-20.36 5.61-42.42 10.7-28.41 6.51-48.39 14.8-59.95 24.82-16.31 14.07-24.64 31.45-25 52.14-0.24 13.32 3.32 25.79 10.66 37.54 7.34 11.69 18.07 20.7 32.15 27.03 14.12 6.27 31.16 9.61 51.24 9.96 32.85 0.58 57.61-6.17 74.46-20.24 16.81-14.13 25.84-33.13 27.11-57.15l-52.71-3.23c-2.48 13.41-7.51 22.99-15.04 28.7-7.52 5.77-18.7 8.5-33.54 8.24-15.34-0.27-27.32-3.58-35.85-10.05-5.53-4.12-8.23-9.59-8.11-16.34 0.1-6.2 2.81-11.45 8.12-15.73 6.73-5.49 23.01-11.04 48.78-16.62 25.79-5.63 44.87-11.57 57.27-17.81 12.41-6.29 22.18-14.94 29.37-26.07 7.12-11.14 10.84-24.95 11.13-41.43 0.25-14.96-3.63-29.09-11.74-42.25-8.11-13.22-19.68-23.16-34.78-29.75-15.1-6.66-34.02-10.15-56.71-10.55-33.03-0.57-58.53 6.59-76.5 21.55s-28.94 37.04-32.86 66.18zm-253.75-140.89-28.47 106.25-131.61 121.38 59.77 16.01 86.17-83.92 31.43 115.44 58.7 15.72-53.53-171.37 28.37-105.9-50.83-13.61zm-298.15 5.89 28.4-63.8 44.58 19.84c17.4 7.75 28.2 13.09 32.43 16.17 6.6 4.47 11 10.3 13.27 17.3 2.25 7.06 1.52 14.86-2.25 23.31-3.19 7.17-7.66 12.44-13.34 15.9-5.73 3.44-12.36 4.89-19.94 4.25-7.57-0.65-22.35-5.89-44.25-15.65l-38.9-17.32zm-42.27 94.93 24.58-55.19 31.56 14.06c18.79 8.36 30.33 13.84 34.65 16.42 7.8 4.61 13.04 10.34 15.67 17.17 2.62 6.83 2.18 14.09-1.26 21.82-3.3 7.39-7.97 12.5-14.08 15.31-6.16 2.78-13.46 2.86-21.88 0.24-5.03-1.57-18.88-7.41-41.56-17.5l-27.68-12.33zm-65.933 18.27 95.423 42.48c18.9 8.42 33.37 13.93 43.37 16.45 9.97 2.57 19.71 2.98 29.27 1.24 9.57-1.73 18.57-5.65 27.18-11.81 8.57-6.1 15.18-14.35 19.76-24.63 4.97-11.18 6.55-22.79 4.7-34.8-1.9-12.04-6.95-22.68-15.16-31.93 16.39 2.24 30.83 0.01 43.14-6.69 12.4-6.74 21.63-17.01 27.77-30.8 4.82-10.84 7.02-22.51 6.54-35.05-0.5-12.48-3.73-23.77-9.74-33.77-6-10-15.1-18.58-27.29-25.74-7.64-4.4-26.79-13.59-57.42-27.5l-81.26-36.17-106.28 238.72zm-150.14-230.1 31.945 22.37c20.735 14.52 33.098 24.44 37.059 29.81 3.914 5.34 5.82 11.2 5.762 17.55-0.114 6.31-2.352 12.69-6.856 19.12-5.054 7.23-11.051 11.65-17.996 13.4-6.941 1.75-14.324 0.73-22.191-2.99-3.797-2-14.492-9.11-32.035-21.39l-33.692-23.59 38.004-54.28zm43.25-153.83-149.88 214.05 91.008 63.72c22.871 16.01 40.828 25.69 53.887 29.11 13.051 3.43 26.156 2.42 39.258-3.03 13.136-5.51 24.082-14.56 32.945-27.21 11.238-16.05 15.816-32.67 13.726-49.74-2.121-17.01-11.636-33.54-28.543-49.4 13.208 1.09 25.122 0.51 35.774-1.76s26.922-8.11 48.894-17.53l55.402-23.44-51.675-36.19-63.879 24.72c-22.766 8.86-37.672 14.02-44.793 15.5-7.125 1.47-13.519 1.38-19.254-0.19-5.703-1.61-13.484-5.88-23.457-12.86l-8.722-6.11 62.57-89.35-43.258-30.29zm-171.05-157.81-178.21 191.11 141.68 132.11 30.164-32.35-103.09-96.13 39.5-42.36 95.934 89.45 30-32.17-95.937-89.45 48.511-52.03 106.74 99.55 30.039-32.21-145.32-135.52zm-294.23-20.78 134.47-108.89 24.774 30.59c9.266 11.44 15.351 20.21 18.16 26.39 3.707 7.96 5.398 15.75 4.988 23.37-0.414 7.61-4.113 16.47-10.929 26.62-6.856 10.1-18.145 21.58-33.844 34.29-15.699 12.72-28.859 21.02-39.492 25.09-10.672 4.02-20.387 5.47-29.086 4.3-8.785-1.18-17.086-4.95-24.949-11.27-5.95-4.65-15.641-15.36-29.2-32.1l-14.89-18.39zm-67.571-13.16 60.692 74.95c13.66 16.87 25.355 28.7 35.148 35.48 13.156 9.08 27.664 14.24 43.504 15.43 15.828 1.28 32.039-1.13 48.594-7.18 16.566-6.13 34.344-16.85 53.402-32.28 16.692-13.51 29.43-27.27 38.16-41.24 10.661-17 16.758-33.92 18.227-50.76 1.207-12.72-1.176-26.69-7.102-41.93-4.425-11.37-12.808-24.62-25.101-39.8l-62.445-77.12-203.08 164.45zm83.426-387.39-230.72 122.68 24.105 45.34 204.28 12.52-154.07 81.92 23.023 43.29 230.72-122.68-24.883-46.78-199.91-12.99 150.47-80-23.024-43.3zm-330.48-158.61 17.172 49.87 133.8-46.07c21.227-7.31 35.254-11.44 41.938-12.38 10.859-1.36 20.734 0.96 29.586 6.86 8.926 5.94 15.758 15.88 20.551 29.8 4.875 14.15 5.683 25.84 2.343 35.03-3.269 9.17-8.922 15.94-16.824 20.27-7.945 4.41-21.68 9.91-41.242 16.65l-136.68 47.06 17.172 49.87 129.78-44.68c29.684-10.22 50.172-18.76 61.489-25.68 11.324-6.92 19.914-15.41 25.879-25.57 5.906-10.15 9.289-22.18 10.132-35.99 0.825-13.86-2.168-30.59-8.906-50.15-8.121-23.58-16.98-40.54-26.644-50.86-9.664-10.31-20.051-17.48-31.172-21.56-11.125-4.09-21.875-5.6-32.199-4.55-15.278 1.59-36.711 7.17-64.383 16.69l-131.79 45.39zm122.66-318.59 2.148 51.54c17.532 0.62 30.938 5.06 40.27 13.33 9.262 8.22 15.066 20.24 17.309 36.15 2.359 16.81 0.589 30.02-5.383 39.53-5.907 9.55-13.621 14.99-23.141 16.34-6.144 0.86-11.578-0.22-16.367-3.24-4.836-2.94-9.449-8.68-13.848-17.22-3.023-5.78-8.722-19.23-17.203-40.22-10.863-27.04-22.18-45.48-33.887-55.32-16.457-13.91-34.922-19.42-55.406-16.54-13.191 1.85-24.961 7.31-35.418 16.4-10.395 9.08-17.617 21.09-21.672 35.98-3.9844 14.94-4.6133 32.29-1.8203 52.17 4.5742 32.53 15.113 55.94 31.641 70.38 16.582 14.38 36.773 20.34 60.687 17.83l-5.047-52.56c-13.633-0.35-23.886-3.83-30.711-10.36-6.875-6.53-11.312-17.15-13.383-31.85-2.1289-15.18-0.7305-27.55 4.3281-36.98 3.1992-6.11 8.1719-9.63 14.856-10.57 6.1484-0.86 11.754 0.99 16.824 5.56 6.4567 5.79 14.496 21 24.035 45.59 9.598 24.58 18.446 42.5 26.54 53.78 8.164 11.26 18.234 19.55 30.351 24.92 12.113 5.29 26.332 6.8 42.66 4.5 14.821-2.08 28.16-8.13 39.899-18.2 11.793-10.07 19.797-23.05 23.945-38.99 4.211-15.96 4.703-35.2 1.539-57.67-4.594-32.71-15.66-56.78-33.242-72.19-17.582-15.4-41.11-22.78-70.504-22.09" fill="#2056ae"/><path
    d="m3431.2 1559.8 69.67-4.87 3.41 48.67c1.33 18.99 1.68 31.04 0.95 36.23-0.85 7.93-3.93 14.54-9.05 19.83-5.17 5.31-12.4 8.32-21.63 8.96-7.83 0.55-14.58-0.93-20.31-4.32-5.72-3.43-10.12-8.61-13.11-15.6-2.98-6.99-5.29-22.5-6.96-46.42l-2.97-42.48zm-103.66 7.25 60.26-4.21 2.42 34.47c1.43 20.51 2.02 33.28 1.75 38.29-0.4 9.06-2.99 16.38-7.79 21.9s-11.43 8.54-19.85 9.14c-8.08 0.55-14.79-1.16-20.13-5.25-5.35-4.14-8.85-10.54-10.5-19.21-0.96-5.17-2.32-20.14-4.05-44.91l-2.11-30.22zm-47.08-49.64 7.28 104.2c1.45 20.63 3.37 35.99 5.84 46 2.41 10.02 6.63 18.81 12.65 26.44 6.02 7.64 13.71 13.74 23.18 18.45 9.42 4.7 19.81 6.67 31.03 5.88 12.2-0.85 23.2-4.92 32.94-12.18 9.74-7.34 16.76-16.79 21.06-28.37 5.73 15.52 14.48 27.23 26.18 34.94 11.76 7.78 25.16 11.11 40.22 10.06 11.84-0.83 23.17-4.37 34.01-10.68 10.79-6.29 19.24-14.45 25.26-24.45 6-9.99 9.3-22.06 9.91-36.19 0.29-8.8-0.58-30.02-2.69-63.6l-6.2-88.73-260.67 18.23zm84.79-241.58 67.47-18.08 12.62 47.13c4.93 18.4 7.58 30.17 7.84 35.38 0.69 7.95-1.07 15.03-5.08 21.21-4.08 6.19-10.6 10.52-19.53 12.91-7.58 2.03-14.49 1.88-20.76-0.36-6.28-2.28-11.57-6.53-15.84-12.82s-9.49-21.08-15.69-44.23l-11.03-41.14zm-100.38 26.89 58.36-15.63 8.95 33.39c5.32 19.85 8.33 32.27 9.04 37.25 1.33 8.97 0.18 16.64-3.48 22.98-3.66 6.33-9.58 10.57-17.75 12.75-7.81 2.09-14.73 1.68-20.75-1.31-6.05-3.03-10.7-8.65-13.97-16.85-1.94-4.89-6.13-19.33-12.55-43.31l-7.85-29.27zm-55.68-39.74 27.04 100.89c5.35 19.98 10.18 34.69 14.51 44.06 4.27 9.36 10.09 17.19 17.45 23.53 7.37 6.35 16.08 10.88 26.28 13.68 10.14 2.83 20.71 2.77 31.59-0.14 11.8-3.17 21.83-9.25 30-18.25 8.16-9.05 13.25-19.67 15.27-31.86 8.57 14.14 19.39 23.96 32.35 29.31 13.04 5.39 26.83 6.1 41.41 2.19 11.45-3.06 21.91-8.71 31.36-16.96 9.37-8.25 16.12-17.87 20.11-28.83 4-10.96 4.93-23.43 2.83-37.41-1.39-8.7-6.29-29.37-14.77-61.92l-23.03-85.92-252.4 67.63zm-113.56-240.05 23.12 47.41 127.19-62.03c20.18-9.849 33.59-15.649 40.12-17.411 10.61-2.66 20.69-1.559 30.2 3.223 9.58 4.789 17.58 13.838 24.02 27.058 6.57 13.46 8.79 24.96 6.61 34.49-2.14 9.5-6.92 16.9-14.23 22.17-7.36 5.34-20.32 12.48-38.92 21.55l-129.92 63.37 23.12 47.4 123.37-60.16c28.22-13.76 47.5-24.73 57.9-32.98 10.39-8.25 17.88-17.73 22.57-28.54 4.62-10.78 6.52-23.15 5.67-36.95-0.87-13.86-5.88-30.1-14.95-48.69-10.93-22.422-21.8-38.179-32.65-47.242-10.85-9.047-22.02-14.898-33.57-17.609-11.53-2.688-22.39-2.879-32.51-0.578-14.97 3.441-35.56 11.589-61.87 24.418l-125.27 61.101zm82.31-341.52-212.3 148.66 30.24 43.211 176.23-123.39 75.23 107.45 36.09-25.261-105.49-150.67zm-213.47-232.97-191.11 178.22 35.98 38.57 84.85-79.121-12.16 157.08 48.38 51.879 7.35-141.36 187.42-32.929-46.56-49.922-138.67 31.14 2.75-61.109 57.75-53.871-35.98-38.578zm-172.34-130.38-127.6 175.63-62.7-45.57-26 35.777 167.99 122.06 26-35.781-62.56-45.461 127.59-175.62-42.72-31.043zm-344.74-25.699 34.75 17.699c22.56 11.5 36.18 19.59 40.85 24.371 4.62 4.738 7.32 10.281 8.14 16.578 0.78 6.262-0.55 12.891-4.12 19.883-4 7.867-9.32 13.07-15.95 15.777-6.64 2.692-14.1 2.711-22.4 0.122-4.04-1.438-15.62-7-34.7-16.731l-36.64-18.668 30.07-59.031zm21.42-158.36-118.62 232.83 98.98 50.429c24.87 12.692 44 19.774 57.41 21.344 13.4 1.566 26.24-1.25 38.46-8.48 12.25-7.27 21.82-17.762 28.84-31.532 8.88-17.449 11.11-34.55 6.67-51.148-4.48-16.551-16.19-31.613-35.14-44.953 13.22-0.77 24.94-2.989 35.18-6.719 10.23-3.73 25.52-11.781 45.97-24.168l51.6-30.934-56.21-28.636-59.81 33.367c-21.32 11.941-35.35 19.133-42.21 21.582-6.84 2.449-13.19 3.238-19.09 2.5-5.87-0.813-14.17-3.961-25.01-9.473l-9.49-4.84 49.53-97.187-47.06-23.981zm-316.29 38.059c8.14-28.43 20.95-48.117 38.25-59.039 17.38-10.898 36.14-13.43 56.37-7.629 20.18 5.789 34.71 17.801 43.5 36.141 8.75 18.269 8.98 41.937 0.63 71.07-8.25 28.77-20.71 48.43-37.37 59.039-16.69 10.52-35.5 12.789-56.38 6.801-20.94-6-35.72-18.024-44.41-36.024-8.65-17.988-8.89-41.418-0.59-70.359zm-51.74-16.668c-7.35 25.609-9.71 48.16-7.02 67.731 2.08 14.386 6.55 28.148 13.52 41.148 6.98 12.949 15.63 23.609 25.98 31.891 13.76 11.16 30.84 19.601 51.31 25.468 37.01 10.61 69.89 7.629 98.71-8.98 28.8-16.547 49.06-45.297 60.79-86.18 11.63-40.578 9.67-75.449-5.81-104.7-15.49-29.191-41.68-49.102-78.52-59.66-37.37-10.73-70.34-7.8398-98.92 8.5899-28.59 16.48-48.59 44.742-60.04 84.691zm-214.01 65.527 6.46-73.808 28.73 2.512c20.73 1.808 34.5 4.359 41.22 7.699 6.73 3.328 11.82 8.058 15.31 14.219 3.43 6.16 4.84 13.07 4.17 20.769-0.82 9.449-4.3 17.02-10.41 22.723-6.06 5.636-13.49 8.898-22.11 9.668-6.41 0.66-19.06 0.109-37.97-1.551l-25.4-2.231zm-33.62-220.85-22.78 260.33 84.31 7.371c31.94 2.789 52.91 3.281 62.83 1.52 15.25-2.559 28.54-9.961 39.75-22.161 11.2-12.218 17.71-28.687 19.52-49.359 1.4-16-0.33-29.711-5.2-41.059-4.87-11.421-11.45-20.609-19.88-27.64-8.36-6.961-17.09-11.879-26.13-14.692-12.33-3.57-30.4-6.437-54.22-8.519l-34.25-3 8.59-98.192-52.54-4.5977zm-300.36 99.461 51.6 0.5473c1.52-17.469 6.66-30.629 15.41-39.52 8.7-8.8203 21.01-13.98 37.01-15.391 16.91-1.4687 30.01 0.9805 39.19 7.4414 9.23 6.4102 14.26 14.402 15.1 23.969 0.54 6.1797-0.82 11.562-4.08 16.18-3.2 4.6719-9.17 8.9807-17.92 12.922-5.94 2.711-19.67 7.711-41.07 15.082-27.58 9.43-46.58 19.77-57.02 30.949-14.75 15.7-21.22 33.848-19.42 54.457 1.16 13.274 6 25.313 14.53 36.231 8.52 10.863 20.14 18.691 34.79 23.519 14.71 4.762 32 6.301 52.01 4.551 32.72-2.867 56.65-12.16 71.94-27.91 15.23-15.82 22.23-35.66 20.98-59.668l-52.75 2.289c-1.07 13.59-5.08 23.649-11.96 30.11-6.88 6.531-17.72 10.41-32.51 11.71-15.27 1.329-27.54-0.699-36.7-6.261-5.92-3.52-9.18-8.66-9.77-15.387-0.54-6.184 1.6-11.684 6.43-16.512 6.12-6.148 21.73-13.371 46.79-21.621 25.04-8.301 43.4-16.187 55.08-23.687 11.68-7.563 20.49-17.18 26.47-29 5.93-11.821 8.18-25.942 6.74-42.371-1.3-14.91-6.65-28.539-16.09-40.789-9.43-12.301-21.98-20.973-37.69-25.953-15.7-5.0391-34.89-6.5391-57.5-4.5586-32.91 2.8789-57.52 12.66-73.83 29.422-16.3 16.758-24.91 39.859-25.76 69.25zm-263.04-29.441 30.32 105.74-50.29 171.82 59.48-17.051 30.63-116.32 86.39 82.769 58.43-16.75-134.15-119.33-30.22-105.39-50.59 14.512zm-260.28 219.97-29.514-63.309 44.224-20.621c17.26-8.05 28.38-12.699 33.48-13.871 7.7-2.039 14.98-1.539 21.76 1.332 6.81 2.942 12.2 8.61 16.11 16.989 3.32 7.121 4.36 13.953 3.25 20.5-1.16 6.589-4.42 12.543-9.88 17.839-5.45 5.301-19.1 13-40.83 23.141l-38.6 18zm43.92 94.172-25.53-54.75 31.32-14.609c18.63-8.68 30.34-13.813 35.12-15.372 8.6-2.859 16.36-3.058 23.23-0.558 6.88 2.5 12.07 7.598 15.64 15.258 3.43 7.34 4.22 14.211 2.33 20.672-1.95 6.468-6.68 12.039-14.18 16.679-4.48 2.758-17.97 9.379-40.47 19.867l-27.46 12.813zm-29.48 61.738 94.68-44.148c18.74-8.742 32.39-16.031 40.85-21.93 8.5-5.84 15.19-12.922 20.16-21.281 4.96-8.36 7.91-17.719 8.91-28.25 1.02-10.481-0.88-20.879-5.63-31.078-5.17-11.082-12.9-19.903-23.18-26.383-10.33-6.457-21.67-9.629-34.04-9.508 12.44-10.891 20.24-23.262 23.25-36.949 3.04-13.774 1.35-27.481-5.03-41.16-5.01-10.75-12.38-20.071-22.15-27.93-9.75-7.801-20.39-12.773-31.88-14.801-11.49-2.043-23.93-0.801-37.33 3.707-8.33 2.883-27.83 11.301-58.43 25.301l-80.615 37.59 110.44 236.82zm-241.46 28.621 31.551-22.922c20.48-14.886 33.883-23.339 40.25-25.347 6.324-1.949 12.496-1.852 18.472 0.281 5.93 2.156 11.235 6.359 15.848 12.688 5.184 7.14 7.414 14.25 6.809 21.39-0.614 7.129-3.969 13.789-10.055 20.012-3.125 2.937-13.328 10.738-30.66 23.316l-33.27 24.184-38.945-53.602zm-131.37-90.98 153.59 211.4 89.879-65.297c22.593-16.41 37.593-30.242 45.078-41.472 7.48-11.219 10.805-23.949 9.914-38.11-0.934-14.218-5.93-27.507-15.012-40.007-11.512-15.852-25.738-25.59-42.554-29.18-16.77-3.524-35.508 0.09-55.997 10.906 5.325-12.137 8.661-23.578 9.981-34.387 1.32-10.812 1.094-28.101-0.656-51.941l-4.133-60.031-51.039 37.09 2.574 68.453c0.969 24.418 0.992 40.179 0.07 47.386-0.922 7.223-3.097 13.243-6.445 18.153-3.383 4.871-9.949 10.84-19.793 17.988l-8.613 6.262-64.117-88.262-42.723 31.051zm-216.61 198 181.53 187.98 139.34-134.57-30.726-31.82-101.4 97.922-40.235-41.661 94.356-91.121-30.555-31.64-94.356 91.121-49.41-51.16 105-101.4-30.601-31.679-142.94 138.03zm20.954 333.67-141.74-99.242 22.582-32.25c8.446-12.059 15.2-20.329 20.364-24.731 6.628-5.758 13.652-9.527 21.086-11.23 7.433-1.707 16.976-0.598 28.605 3.16 11.594 3.812 25.75 11.5 42.293 23.082 16.547 11.59 28.156 21.937 35.004 31.051 6.808 9.148 10.879 18.089 12.148 26.769 1.282 8.777-0.054 17.789-3.961 27.09-2.832 7.008-10.453 19.281-22.8 36.91l-13.582 19.391zm5.976 68.578 55.313-78.988c12.461-17.793 20.605-32.301 24.425-43.582 5.106-15.141 6.063-30.508 2.84-46.059-3.136-15.582-9.918-30.5-20.293-44.75-10.457-14.223-25.664-28.352-45.75-42.43-17.59-12.312-34.328-20.761-50.156-25.312-19.281-5.559-37.23-6.758-53.828-3.52-12.567 2.34-25.328 8.481-38.348 18.371-9.707 7.399-20.136 19.11-31.336 35.102l-56.914 81.289 214.05 149.88zm-357.52 131.75 238.72 106.28 20.887-46.9-115.9-168.68 159.4 70.96 19.945-44.79-238.72-106.29-21.555 48.418 112.85 165.51-155.69-69.31-19.941 44.8zm159.94 370.02 13.652-50.96-136.69-36.62c-21.688-5.81-35.617-10.23-41.691-13.18-9.762-4.95-16.645-12.4-20.688-22.24-4.082-9.91-4.1914-21.97-0.3789-36.19 3.8749-14.46 9.7419-24.6 17.645-30.36 7.839-5.77 16.312-8.22 25.281-7.39 9.055 0.79 23.519 3.9 43.504 9.26l139.63 37.42 13.652-50.96-132.58-35.53c-30.328-8.12-52.082-12.5-65.336-13.09-13.258-0.6-25.133 1.65-35.758 6.73-10.562 5.11-20.098 13.2-28.516 24.18-8.4375 11.02-15.312 26.57-20.664 46.54-6.4571 24.1-8.5938 43.11-6.3477 57.07 2.2461 13.95 6.8438 25.7 13.777 35.31 6.9375 9.61 15.012 16.87 24.152 21.78 13.555 7.22 34.45 14.58 62.715 22.16l134.63 36.07zm-201.42 242.49 8.6172-50.87c-17.024-4.25-29.211-11.37-36.621-21.41-7.3516-9.96-10.535-22.93-9.4102-38.96 1.1797-16.93 5.6602-29.48 13.48-37.54 7.7617-8.11 16.438-11.84 26.031-11.17 6.1915 0.43 11.281 2.62 15.336 6.56 4.1212 3.89 7.4412 10.46 9.9652 19.73 1.754 6.28 4.531 20.62 8.461 42.92 5.011 28.71 12.246 49.09 21.652 61.15 13.195 17.03 30.117 26.26 50.758 27.71 13.285 0.92 25.933-1.98 38.051-8.68 12.054-6.72 21.617-16.98 28.671-30.69 7.004-13.78 11.231-30.62 12.629-50.65 2.293-32.78-3.148-57.85-16.312-75.43-13.231-17.51-31.742-27.53-55.653-30.05l-5.992 52.46c13.262 3.17 22.571 8.71 27.875 16.52 5.371 7.82 7.512 19.12 6.477 33.93-1.07 15.3-5.004 27.1-11.918 35.28-4.402 5.3-9.996 7.72-16.735 7.24-6.191-0.43-11.285-3.41-15.292-8.94-5.125-7-9.821-23.55-14.036-49.58-4.277-26.04-9.203-45.41-14.781-58.12-5.637-12.72-13.773-22.92-24.512-30.69-10.742-7.7-24.336-12.12-40.785-13.28-14.93-1.04-29.238 2.1-42.805 9.51-13.629 7.41-24.164 18.44-31.539 33.17-7.4297 14.73-11.906 33.45-13.492 56.08-2.3047 32.95 3.5117 58.8 17.508 77.52 14 18.73 35.477 30.84 64.371 36.28"
    fill="#2056ae"/><path
    d="m126.19 1876.3c30.953 0 56.199-25.25 56.199-56.2 0-30.96-25.246-56.2-56.199-56.2-30.954 0-56.204 25.24-56.204 56.2 0 30.95 25.25 56.2 56.204 56.2"
    fill="#2056ae"/><path
    d="m3418.4 1876.3c30.95 0 56.21-25.25 56.21-56.2 0-30.96-25.26-56.2-56.21-56.2s-56.2 25.24-56.2 56.2c0 30.95 25.25 56.2 56.2 56.2"
    fill="#2056ae"/><path
    d="m1772.3 3225.1c797.5 0 1447.9-650.44 1447.9-1447.9 0-797.5-650.44-1447.9-1447.9-1447.9-797.49 0-1447.9 650.44-1447.9 1447.9 0 797.49 650.44 1447.9 1447.9 1447.9"
    fill="#2056ae"/><path
    d="m2992.2 1612.4c-0.34-1.02-0.63-2.02-0.91-2.99-2.73-0.79-2.73-0.79-12.09-1.86-37.98-0.45-75.96-0.8-113.77 0.11-3.63 1.03-6.38 1.89-9.42 3.81-14.51 21.54-26.56 45.55-40.18 67.88-1.98 2.47-4.06 7.37-12.11 20.57-15.6 28.47-33.04 57.29-50.47 84.78-2.06 4.44-2.06 4.44-16.15 25.99-10.43 18.74-21.72 38.9-34.34 56.38-6.43 2.53-7.57-1.04-12.54-3.65-5.47-8.01-15.16-16.03-22.46-22.23-15.4-16.69-21.5-22.46-21.97-23.71-3.71-2.12-5.88-5-8.56-8-13.42-8.7-23.67-21.29-32.78-33.93-0.61-2.85-1.24-5.64-1.84-8.44-0.55-49.03-1.32-98.24-0.73-147.07-1.4-11.3-2.13-10.3-13.92-11.81-20.77 0.23-26.71 0.69-85.06 0.94-2.31 0.62-4.64 1.25-6.96 1.93-0.61 1.18-1.22 2.42-1.78 3.66-0.76 63.78-2.9 128.1 0.66 192-0.39 2.43-0.77 4.92-1.1 7.4 0.49 43.45 0.44 126.37-0.1 170.34 0.43 9.37 0.49 82.91 0.95 89.32-0.28 23.86-0.16 47.48 1.09 71.6 2.59 6.92 6.21 6.54 13.49 8.29 26.59 0.02 54.08 0.11 80.7-3.01 2.39-1.21 4.78-2.43 7.17-3.59 2.29-13.45 3.04-26.38 3.98-39.89 0.36-30.15 0.72-60.23 1.08-90.32-0.56-31.51 0.23-62.96 0.61-94.3 2.3-4.54 1.97-5.44 7.23-4.6 10.13 7.07 20.76 15.68 27.89 26.27 2.75 2.53 5.5 5.11 8.32 7.69 2.87 3.84 6.01 7.97 10.26 10.52 9.53 12.34 21.87 22.81 32.21 34.93 4.37 2.9 8.23 7.4 11.5 11.77 6.99 6.61 12.53 14.58 20.29 20.72 3.22 3.43 6.03 7.25 10.26 9.98 2.2 4.12 8.22 7.93 11.73 11.47 6.1 7.38 12.41 14.21 19.27 21.25 10.41 8.54 18.64 19.57 28.31 29.48 2.83 2.17 5.71 4.34 8.58 6.51 3.32 6.15 8.24 12.56 14.65 16.2 2.35 2.47 5.21 6.89 8.81 7.76 4.91 6.29 11.68 11.06 18.09 16.25 22.13 5.43 46.31 3.76 69.21 4.27 45-0.4 45-0.4 59.36-1.24 6.55-1.99 0.98-7.23-1.59-10.58-15.9-15.8-21.52-21.98-33.49-33.76-6.27-1.5-14.62-18.81-20.98-21.73-5.62-6.49-5.62-6.49-6.36-7.98-16.22-14.26-31.22-30.23-46.95-44.72-3.63-4.73-3.63-4.73-3.85-5.75-1.24-0.48-11.02-11.46-11.72-12.96-0.35 0-0.7-0.01-1.01-0.01 0-0.35 0.01-0.71 0.01-1-0.35-0.01-0.71-0.01-0.99-0.02v-0.95c-12.22-10.35-22.51-23-34.68-32.76-8.83-11.15-21.27-17.82-27.59-30.66 0.02-2.02 0.05-3.98 0.08-5.94 9.63-16.38 20.86-32.09 30.26-48.53 19.26-27.31 38.05-54.8 55.37-83.25 16.83-22.43 33.95-44.4 46.36-69.53 16.12-22.95 32.2-47.98 40.3-59.7 7.71-13.67 15.04-26.99 24.21-39.71 8.08-14.68 12.12-20.57 16.14-28.4 0-0.54 0.02-1.02 0.02-1.49"
    fill="#fddd04"/><path
    d="m1745.8 488.45-10.18 3.571-711.65 658.08 523.73 541.4 8.6 5.8 400.81-396.6-208.65-222.25-235.14 224.97-85.78-92.17 328.01-315.45 396.18 415.95 1.31 14.32-1111.9 1024.9 689.02 715.87c2.61 0.03 5.22 0.06 7.89 0.09l651.92-586.03-30.21-30.58-1.02-0.02-369.32-412.97-5.46 0.94-397.59 352.42 160.3 166.49 236.14-201.36 73.61 76.92c-1.56 13.76-290.9 252.46-309.47 265.62-3.28 1.33-4.52 1.37-7.92 1.34l-287.26-318.08 4.89-11.34 1.18-0.46 1108.1-1042-820.16-839.38"
    fill="#fddd04"/><path
    d="m1071.9 1726.4c-0.65-9.86-1.96-24.48-6.55-33.14-1.85-8.51-4.4-18.75-9.06-25.81-1.65-5.89-5.96-17.04-10.85-20.6-1.74-3.23-3.67-5.21-5.37-8.2-0.34 0-0.7-0.01-1-0.01-6.71-9.64-11.96-17.94-21.98-23.7-8.71-9.96-21.453-16.05-32.36-23.13-9.503-4.09-19.007-8.18-28.507-12.22-8.879-2.06-14.321-4.09-26.629-7.2-26.176-4.29-26.176-4.29-36.551-5.36-5.109-0.06-10.207-0.13-15.313-0.2-23.886-2.6-47.984-1.87-71.671-0.86-24.317 2.8-50.067 7.94-72.45 17.88-4.171 1.25-8.277 2.51-12.386 3.77-16.985 10.66-32.762 18.9-47.395 32-0.543 0.25-1.015 0.47-1.492 0.78-9.523 11.62-20.633 22.89-26.914 36.69-2.348 2.71-2.848 4.84-4.078 8.32-5.246 6.53-6.223 13.7-10.098 20.59-2.121 8.4-2.121 8.4-4.156 14.32-1.082 7.05-2.188 14.1-3.211 21.15 0.957 13.54 8.43 13.81 20.324 16.8 13.988 1.76 28.281 2.59 42.52 3.48 11.336-0.4 11.336-0.4 15.781 0.19 5-1.78 10.726-3.72 15.676-5.98 1.328-1.47 2.648-2.94 3.976-4.4 4.11-11.29 4.11-11.29 7.16-18.2 3.481-3.4 4.372-8.31 5.375-12.98 4.727-3.46 5.762-9.56 10.547-13.24 3.473-7.55 11.465-10.78 15.055-17.79 4.242-2.57 5.289-5.35 10.465-6.59 6.055-5.22 12.805-8.58 19.91-12.57 5.125-1.32 10.246-2.55 15.367-3.8 18.18-6.6 36.879-7.45 56.465-7.22 6.918 2.22 15.121 1.08 22.773 1.77 3.719 0.99 7.508 2.05 11.29 3.1 9.492 0.12 18.753 5.33 28.101 7.75 6.422 4.05 6.422 4.05 14.738 8.08 3.688 4.26 3.688 4.26 5.614 7.72 9.23 5.93 11.656 12.25 16.039 22.4 1.695 2.26 2.047 2.88 2.425 5.95 4.102 4.21 3.477 12.22 5.715 18.35-0.097 8.37 0.321 12.36 0.223 20.72-1.359 5.15-6.121 25.51-10.949 27.06-4.946 10.9-15.774 18.2-25.52 24.6-14.433 5.7-14.433 5.7-17.898 7.69-25.789 7.58-54.602 15.12-63.547 17.98-7.25 1.21-14.5 2.44-21.758 3.66-14.59 4.57-30.426 8.12-45.191 11.32-7.578 3.65-16.387 5.8-24.297 7.6-10.156 4.92-20.403 8.13-30.313 13.46-14.648 4.22-25.441 12.82-37.882 21.27-1.75 2.18-13.5 11.65-15 13.65-3.594 2.62-4.954 6.65-8.485 9.28-2.953 3.81-5.91 7.63-8.797 11.46-2.078 4.43-2.078 4.43-8.133 13.26-2.023 6.37-2.023 6.37-4.019 9.79-2.242 9-4.809 19.12-7.766 28.05-0.343 13.81-0.687 27.64-1.023 41.46 2.855 8.88 2.855 8.88 4.773 16.86 5.004 13.36 9.895 26.29 17.582 38.67 0.414 0.18 0.825 0.37 1.243 0.55 4.003 7.11 11.3 12.07 14.835 19.4 3.004 1.71 4.461 4.04 7.825 5.74 4.406 4.03 4.406 4.03 5.863 6.31 7.535 4.6 15.074 9.19 22.617 13.8 12.34 5.6 26.332 11.53 39.891 14.31 9.086 3.96 18.98 5.63 29.051 7.24 11.855 1.08 23.714 2.23 35.578 3.39 15.539 0.19 34.211 1.84 49.515-2.38 23.231-1.67 23.231-1.67 36.602-3.47 1.973-0.99 3.945-1.97 5.976-2.9 8.848-0.43 16.786-4.66 25.825-5.61 13.125-6.38 26.429-12.09 39.277-19.3 5.211-3.85 10.121-7.47 15.977-10.61 1.148-1.35 2.289-2.64 3.492-3.93 7.568-3.23 12.738-8.57 17.218-15.35 4.14-4.03 9.48-8.9 10.57-14.64 3.94-3.1 5.68-5.04 8.53-9.27 0.51-2.73 1.2-5.03 3.81-6.13 1.6-4.56 3.2-9.05 4.86-13.54 4-2.97 5.09-4.44 7.52-8.81 2.06-7.86 2.06-7.86 4.06-12.3 0.25-5.33 2.44-15.27-2.44-18.54-8.17-2.06-16.6-2.04-24.7-4.22-12.87-0.68-12.87-0.68-63.315-0.76-3.922 0.55-5.465 0.41-8.402 2.87-4.582 10.21-8.258 20.14-14 29.68-6.996 8.83-6.996 8.83-9.059 12.24-8.004 8.81-8.004 8.81-16.223 16.3-12.046 5.26-24.007 12.23-36.804 15.88-13.844 0.79-18.844 1.73-28.223 2.09-10.387-0.12-20.766-0.24-31.156-0.37-2.477-0.98-12.317-2.11-28.59-6.23-12.594-4-23.832-11.5-34.91-18.22-7.555-8.46-12.563-17.13-14.262-28.07 0.102-8.24-1.437-23.69 3.336-30.52 4.098-10.33 7.129-15.7 8.91-20.66 5.133-2.02 8.442-5.72 12.461-9.47 3.469-2.63 6.945-5.19 10.481-7.77 11.851-3.59 23.675-9.62 35.308-14.34 6.434-1.94 6.434-1.94 17.367-3.78 5.758-3.84 13.286-3.64 19.856-7.17 1.973-0.33 3.926-0.61 5.949-0.88 10.207-4.45 20.797-6.87 31.734-8.52 5.489-1.89 5.489-1.89 13.938-3.81 5.871-4.86 7.762-4.36 15.84-4.74 11.57-4.91 23.726-8.61 35.762-12.38 4.484-2.98 9.656-3.75 14.894-5.23 2.629-1.33 5.316-2.6 7.992-3.87 7.922-1.87 7.922-1.87 9.184-2.63 2.484-4.24 14.769-9.19 20.132-10.85 2.34-2 4.67-3.93 7.01-5.85 4.95-1.9 4.95-1.9 7.94-3.82 4.64-5.71 11.11-11.08 15.04-16.86 8.01-5.18 13.55-11.52 17.34-20.5 0.07-1.48 0.16-2.96 0.29-4.44 1.3-0.28 2.63-0.51 3.99-0.73 2.6-4.48 5.21-8.96 7.82-13.44 0.09-7.77 2.31-15.1 3.24-22.68 5.24-11.63 6.69-23.42 6.84-35.94"
    fill="#fddd04"/></g></g></svg>
