<svg id="Liggande_på_vitt" data-name="Liggande på vitt" xmlns="http://www.w3.org/2000/svg" viewBox="0 0 246.52 49.34"><defs><style>.cls-1{fill:#1a1a18;}.cls-2{fill:#fcc200;}.cls-3{fill:#fff;}</style></defs><title>Hussaneringar</title><g id="Lager_17" data-name="Lager 17"><g id="Små"><path class="cls-1" d="M241.88,36.88h4.31v-6.5a3,3,0,0,1,3.23-3.12,5.75,5.75,0,0,1,1.65.26V23.59a5,5,0,0,0-1-.1,4,4,0,0,0-3.95,2.56h-.05v-2.3h-4.18ZM230.57,27.8a1.94,1.94,0,0,1,2.16-1.65c.88,0,2.07.38,2.07,1.37,0,.81-.41,1.06-1.14,1.21-3,.61-7.64.28-7.64,4.55,0,2.71,2,4,4.48,4a6,6,0,0,0,4.33-1.62,5.25,5.25,0,0,0,.25,1.24h4.32a7.76,7.76,0,0,1-.5-3.37V27.77c0-3.72-3-4.4-6.12-4.4a8.66,8.66,0,0,0-4.18.91,4.06,4.06,0,0,0-2,3.52Zm-.25,5.31c0-1,.81-1.44,1.77-1.67a12.53,12.53,0,0,0,2.66-.71c.1,2.71-.58,3.87-2.63,3.87-1,0-1.8-.43-1.8-1.49M224,23.75h-4.12v1.64h0a3.8,3.8,0,0,0-3.52-2c-3.72,0-5.77,2.93-5.77,6.42,0,3.7,1.8,6.53,5.77,6.53a4.16,4.16,0,0,0,3.49-1.92h0v1.24c0,1.62-.2,3.06-2.25,3.06a3.45,3.45,0,0,1-1.57-.28,1.41,1.41,0,0,1-.73-1.14H211c.5,3.52,3.39,4.2,6.45,4.2,6.15,0,6.55-4,6.55-6.2ZM219.9,30c0,1.65-.79,3.06-2.61,3.06s-2.48-1.54-2.48-3.08.61-3.29,2.51-3.29S219.9,28.3,219.9,30m-24.57,6.91h4.31V29.72c0-1.44.7-2.81,2.32-2.81,2.36,0,2.15,1.82,2.15,3.62v6.35h4.3V28.45c0-1.89-.35-5.08-4.73-5.08a5,5,0,0,0-4.12,2.17h-.05V23.75h-4.18Zm-7.33,0h4.3V23.75H188Zm-10.78,0h4.3v-6.5a3,3,0,0,1,3.24-3.12,5.68,5.68,0,0,1,1.64.26V23.59a4.87,4.87,0,0,0-1-.1,4,4,0,0,0-3.94,2.56h-.06v-2.3h-4.17Zm-2.3-5.52c.2-4.45-2.15-8-6.86-8a6.88,6.88,0,0,0-7.08,6.9c0,4.41,2.91,7,7.18,7,2.94,0,5.74-1.32,6.53-4.35h-4a2.58,2.58,0,0,1-2.46,1.44,2.8,2.8,0,0,1-2.93-3ZM165.28,29a2.82,2.82,0,0,1,2.78-2.68A2.66,2.66,0,0,1,170.62,29Zm-19.61,7.92H150V29.72c0-1.44.71-2.81,2.33-2.81,2.35,0,2.15,1.82,2.15,3.62v6.35h4.3V28.45c0-1.89-.35-5.08-4.73-5.08a4.94,4.94,0,0,0-4.12,2.17h-.05V23.75h-4.18ZM134.52,27.8a1.92,1.92,0,0,1,2.15-1.65c.88,0,2.07.38,2.07,1.37,0,.81-.4,1.06-1.14,1.21-3,.61-7.64.28-7.64,4.55,0,2.71,2,4,4.48,4a6,6,0,0,0,4.33-1.62,5.25,5.25,0,0,0,.25,1.24h4.32a7.76,7.76,0,0,1-.5-3.37V27.77c0-3.72-3-4.4-6.12-4.4a8.66,8.66,0,0,0-4.18.91,4.06,4.06,0,0,0-2,3.52Zm-.26,5.31c0-1,.81-1.44,1.77-1.67a12.53,12.53,0,0,0,2.66-.71c.1,2.71-.58,3.87-2.63,3.87-1,0-1.8-.43-1.8-1.49m-18.41-.56c.12,3.67,3.31,4.71,6.42,4.71s6.3-1.17,6.3-4.68A3.72,3.72,0,0,0,125.23,29c-2-.44-4.86-.66-4.86-1.9,0-.91,1.14-1,1.85-1a2.55,2.55,0,0,1,1.37.33,1.24,1.24,0,0,1,.55,1.14h4c-.16-3.42-3.17-4.25-6.05-4.25-2.58,0-6,.86-6,4,0,3.54,3.39,3.62,6.1,4.3.76.18,2.1.38,2.1,1.39s-1.19,1.39-2,1.39a2.74,2.74,0,0,1-1.6-.45,1.77,1.77,0,0,1-.71-1.47Zm-14.07,0c.13,3.67,3.31,4.71,6.42,4.71s6.31-1.17,6.31-4.68A3.73,3.73,0,0,0,111.17,29c-2-.44-4.86-.66-4.86-1.9,0-.91,1.14-1,1.85-1a2.49,2.49,0,0,1,1.36.33,1.23,1.23,0,0,1,.56,1.14h4c-.15-3.42-3.16-4.25-6-4.25-2.58,0-6,.86-6,4,0,3.54,3.39,3.62,6.09,4.3.76.18,2.1.38,2.1,1.39s-1.18,1.39-2,1.39a2.69,2.69,0,0,1-1.59-.45,1.77,1.77,0,0,1-.71-1.47Zm-2.13-8.8h-4.3v7c0,2.33-1.41,2.93-2.35,2.93-1.37,0-2.12-.6-2.12-2.35V23.75h-4.3v7.89c0,3.44,1.08,5.62,4.85,5.62a4.85,4.85,0,0,0,4-2.18h0v1.8h4.17ZM68,36.88h4.71V29.44h6.19v7.44h4.71V18.81H78.88v6.58H72.69V18.81H68Z" transform="translate(-4.55 -3.61)"/><path class="cls-1" d="M192.41,19.93a2.25,2.25,0,1,1-2.25-2.25A2.25,2.25,0,0,1,192.41,19.93Z" transform="translate(-4.55 -3.61)"/></g></g><g id="Logo"><circle class="cls-1" cx="24.67" cy="24.67" r="24.67"/><path class="cls-2" d="M27,24.91,14,31.4a7.14,7.14,0,0,1-1.11-3.82A7.3,7.3,0,0,1,27,24.91" transform="translate(-4.55 -3.61)"/><path class="cls-3" d="M11.41,32.75l1.34,2.46,16.47-8.13c.66.34,16.46,8.13,16.46,8.13L47,32.75l-17.8-8.9Z" transform="translate(-4.55 -3.61)"/></g></svg>